<svg width="440" height="440" xmlns="http://www.w3.org/2000/svg">

 <g>
  <title>background</title>
  <rect fill="none" id="canvas_background" height="442" width="442" y="-1" x="-1"/>
 </g>
 <g>
  <title>Layer 1</title>
  <path stroke="null" id="svg_1" d="m-285.999928,480.999986l25.516665,-30.125c25.516665,-30.125 76.549996,-90.374999 127.583327,-80.396093c51.033331,10.732031 102.066662,89.810156 153.099993,70.417187c51.033331,-20.146094 102.066662,-140.646093 153.099993,-140.646093c51.033331,0 102.066662,120.499999 153.099993,110.521093c51.033331,-10.732031 102.066662,-150.060155 153.099993,-200.896092c51.033331,-50.835937 102.066662,-9.414062 153.099993,-9.978906c51.033331,0.564844 102.066662,-40.857031 153.099993,-50.271093c51.033331,-9.414062 102.066662,9.414062 153.099993,0c51.033331,-9.414062 102.066662,-50.835937 153.099993,-50.271093c51.033331,-0.564844 102.066662,40.857031 127.583327,60.25l25.516665,20.146094l0,-180.749999l-25.516665,0c-25.516665,0 -76.549996,0 -127.583327,0c-51.033331,0 -102.066662,0 -153.099993,0c-51.033331,0 -102.066662,0 -153.099993,0c-51.033331,0 -102.066662,0 -153.099993,0c-51.033331,0 -102.066662,0 -153.099993,0c-51.033331,0 -102.066662,0 -153.099993,0c-51.033331,0 -102.066662,0 -153.099993,0c-51.033331,0 -102.066662,0 -153.099993,0c-51.033331,0 -102.066662,0 -153.099993,0c-51.033331,0 -102.066662,0 -127.583327,0l-25.516665,0l0,481.999996z" fill="#00b285"/>
 </g>
</svg>