<?xml version="1.0" standalone="no"?><svg xmlns="http://www.w3.org/2000/svg" viewBox="0 0 1440 320"><path fill="#00b285" fill-opacity="1" d="M0,288L9.6,261.3C19.2,235,38,181,58,170.7C76.8,160,96,192,115,208C134.4,224,154,224,173,229.3C192,235,211,245,230,250.7C249.6,256,269,256,288,234.7C307.2,213,326,171,346,176C364.8,181,384,235,403,240C422.4,245,442,203,461,176C480,149,499,139,518,165.3C537.6,192,557,256,576,250.7C595.2,245,614,171,634,154.7C652.8,139,672,181,691,202.7C710.4,224,730,224,749,192C768,160,787,96,806,64C825.6,32,845,32,864,48C883.2,64,902,96,922,101.3C940.8,107,960,85,979,117.3C998.4,149,1018,235,1037,245.3C1056,256,1075,192,1094,149.3C1113.6,107,1133,85,1152,101.3C1171.2,117,1190,171,1210,176C1228.8,181,1248,139,1267,149.3C1286.4,160,1306,224,1325,208C1344,192,1363,96,1382,85.3C1401.6,75,1421,149,1430,186.7L1440,224L1440,0L1430.4,0C1420.8,0,1402,0,1382,0C1363.2,0,1344,0,1325,0C1305.6,0,1286,0,1267,0C1248,0,1229,0,1210,0C1190.4,0,1171,0,1152,0C1132.8,0,1114,0,1094,0C1075.2,0,1056,0,1037,0C1017.6,0,998,0,979,0C960,0,941,0,922,0C902.4,0,883,0,864,0C844.8,0,826,0,806,0C787.2,0,768,0,749,0C729.6,0,710,0,691,0C672,0,653,0,634,0C614.4,0,595,0,576,0C556.8,0,538,0,518,0C499.2,0,480,0,461,0C441.6,0,422,0,403,0C384,0,365,0,346,0C326.4,0,307,0,288,0C268.8,0,250,0,230,0C211.2,0,192,0,173,0C153.6,0,134,0,115,0C96,0,77,0,58,0C38.4,0,19,0,10,0L0,0Z"></path></svg>